<?xml version="1.0" standalone="no"?>
<svg xmlns="http://www.w3.org/2000/svg" width="500" height="500"><defs><clipPath id="clip-path-dot-color"><rect x="28" y="124" width="12" height="12" transform="rotate(0,34,130)"/><rect x="28" y="136" width="12" height="12" transform="rotate(0,34,142)"/><rect x="28" y="148" width="12" height="12" transform="rotate(0,34,154)"/><rect x="28" y="196" width="12" height="12" transform="rotate(0,34,202)"/><rect x="28" y="232" width="12" height="12" transform="rotate(0,34,238)"/><rect x="28" y="256" width="12" height="12" transform="rotate(0,34,262)"/><rect x="28" y="280" width="12" height="12" transform="rotate(0,34,286)"/><rect x="28" y="304" width="12" height="12" transform="rotate(0,34,310)"/><rect x="28" y="316" width="12" height="12" transform="rotate(0,34,322)"/><rect x="40" y="124" width="12" height="12" transform="rotate(0,46,130)"/><rect x="40" y="172" width="12" height="12" transform="rotate(0,46,178)"/><rect x="40" y="184" width="12" height="12" transform="rotate(0,46,190)"/><rect x="40" y="208" width="12" height="12" transform="rotate(0,46,214)"/><rect x="40" y="328" width="12" height="12" transform="rotate(0,46,334)"/><rect x="40" y="340" width="12" height="12" transform="rotate(0,46,346)"/><rect x="40" y="364" width="12" height="12" transform="rotate(0,46,370)"/><rect x="52" y="136" width="12" height="12" transform="rotate(0,58,142)"/><rect x="52" y="172" width="12" height="12" transform="rotate(0,58,178)"/><rect x="52" y="256" width="12" height="12" transform="rotate(0,58,262)"/><rect x="52" y="280" width="12" height="12" transform="rotate(0,58,286)"/><rect x="52" y="292" width="12" height="12" transform="rotate(0,58,298)"/><rect x="52" y="316" width="12" height="12" transform="rotate(0,58,322)"/><rect x="52" y="340" width="12" height="12" transform="rotate(0,58,346)"/><rect x="52" y="352" width="12" height="12" transform="rotate(0,58,358)"/><rect x="64" y="136" width="12" height="12" transform="rotate(0,70,142)"/><rect x="64" y="148" width="12" height="12" transform="rotate(0,70,154)"/><rect x="64" y="172" width="12" height="12" transform="rotate(0,70,178)"/><rect x="64" y="184" width="12" height="12" transform="rotate(0,70,190)"/><rect x="64" y="208" width="12" height="12" transform="rotate(0,70,214)"/><rect x="64" y="244" width="12" height="12" transform="rotate(0,70,250)"/><rect x="64" y="268" width="12" height="12" transform="rotate(0,70,274)"/><rect x="64" y="280" width="12" height="12" transform="rotate(0,70,286)"/><rect x="64" y="316" width="12" height="12" transform="rotate(0,70,322)"/><rect x="64" y="328" width="12" height="12" transform="rotate(0,70,334)"/><rect x="64" y="352" width="12" height="12" transform="rotate(0,70,358)"/><rect x="64" y="364" width="12" height="12" transform="rotate(0,70,370)"/><rect x="76" y="148" width="12" height="12" transform="rotate(0,82,154)"/><rect x="76" y="160" width="12" height="12" transform="rotate(0,82,166)"/><rect x="76" y="220" width="12" height="12" transform="rotate(0,82,226)"/><rect x="76" y="232" width="12" height="12" transform="rotate(0,82,238)"/><rect x="76" y="244" width="12" height="12" transform="rotate(0,82,250)"/><rect x="76" y="256" width="12" height="12" transform="rotate(0,82,262)"/><rect x="76" y="268" width="12" height="12" transform="rotate(0,82,274)"/><rect x="76" y="304" width="12" height="12" transform="rotate(0,82,310)"/><rect x="76" y="328" width="12" height="12" transform="rotate(0,82,334)"/><rect x="88" y="148" width="12" height="12" transform="rotate(0,94,154)"/><rect x="88" y="208" width="12" height="12" transform="rotate(0,94,214)"/><rect x="88" y="220" width="12" height="12" transform="rotate(0,94,226)"/><rect x="88" y="232" width="12" height="12" transform="rotate(0,94,238)"/><rect x="88" y="244" width="12" height="12" transform="rotate(0,94,250)"/><rect x="88" y="280" width="12" height="12" transform="rotate(0,94,286)"/><rect x="88" y="292" width="12" height="12" transform="rotate(0,94,298)"/><rect x="88" y="328" width="12" height="12" transform="rotate(0,94,334)"/><rect x="88" y="340" width="12" height="12" transform="rotate(0,94,346)"/><rect x="88" y="364" width="12" height="12" transform="rotate(0,94,370)"/><rect x="100" y="124" width="12" height="12" transform="rotate(0,106,130)"/><rect x="100" y="148" width="12" height="12" transform="rotate(0,106,154)"/><rect x="100" y="172" width="12" height="12" transform="rotate(0,106,178)"/><rect x="100" y="196" width="12" height="12" transform="rotate(0,106,202)"/><rect x="100" y="220" width="12" height="12" transform="rotate(0,106,226)"/><rect x="100" y="244" width="12" height="12" transform="rotate(0,106,250)"/><rect x="100" y="268" width="12" height="12" transform="rotate(0,106,274)"/><rect x="100" y="292" width="12" height="12" transform="rotate(0,106,298)"/><rect x="100" y="316" width="12" height="12" transform="rotate(0,106,322)"/><rect x="100" y="340" width="12" height="12" transform="rotate(0,106,346)"/><rect x="100" y="364" width="12" height="12" transform="rotate(0,106,370)"/><rect x="112" y="136" width="12" height="12" transform="rotate(0,118,142)"/><rect x="112" y="160" width="12" height="12" transform="rotate(0,118,166)"/><rect x="112" y="172" width="12" height="12" transform="rotate(0,118,178)"/><rect x="112" y="208" width="12" height="12" transform="rotate(0,118,214)"/><rect x="112" y="220" width="12" height="12" transform="rotate(0,118,226)"/><rect x="112" y="232" width="12" height="12" transform="rotate(0,118,238)"/><rect x="112" y="256" width="12" height="12" transform="rotate(0,118,262)"/><rect x="112" y="316" width="12" height="12" transform="rotate(0,118,322)"/><rect x="112" y="340" width="12" height="12" transform="rotate(0,118,346)"/><rect x="112" y="352" width="12" height="12" transform="rotate(0,118,358)"/><rect x="112" y="364" width="12" height="12" transform="rotate(0,118,370)"/><rect x="124" y="40" width="12" height="12" transform="rotate(0,130,46)"/><rect x="124" y="100" width="12" height="12" transform="rotate(0,130,106)"/><rect x="124" y="112" width="12" height="12" transform="rotate(0,130,118)"/><rect x="124" y="124" width="12" height="12" transform="rotate(0,130,130)"/><rect x="124" y="136" width="12" height="12" transform="rotate(0,130,142)"/><rect x="124" y="160" width="12" height="12" transform="rotate(0,130,166)"/><rect x="124" y="172" width="12" height="12" transform="rotate(0,130,178)"/><rect x="124" y="196" width="12" height="12" transform="rotate(0,130,202)"/><rect x="124" y="208" width="12" height="12" transform="rotate(0,130,214)"/><rect x="124" y="220" width="12" height="12" transform="rotate(0,130,226)"/><rect x="124" y="256" width="12" height="12" transform="rotate(0,130,262)"/><rect x="124" y="292" width="12" height="12" transform="rotate(0,130,298)"/><rect x="124" y="316" width="12" height="12" transform="rotate(0,130,322)"/><rect x="124" y="376" width="12" height="12" transform="rotate(0,130,382)"/><rect x="124" y="448" width="12" height="12" transform="rotate(0,130,454)"/><rect x="124" y="460" width="12" height="12" transform="rotate(0,130,466)"/><rect x="136" y="76" width="12" height="12" transform="rotate(0,142,82)"/><rect x="136" y="88" width="12" height="12" transform="rotate(0,142,94)"/><rect x="136" y="112" width="12" height="12" transform="rotate(0,142,118)"/><rect x="136" y="136" width="12" height="12" transform="rotate(0,142,142)"/><rect x="136" y="160" width="12" height="12" transform="rotate(0,142,166)"/><rect x="136" y="184" width="12" height="12" transform="rotate(0,142,190)"/><rect x="136" y="196" width="12" height="12" transform="rotate(0,142,202)"/><rect x="136" y="220" width="12" height="12" transform="rotate(0,142,226)"/><rect x="136" y="232" width="12" height="12" transform="rotate(0,142,238)"/><rect x="136" y="244" width="12" height="12" transform="rotate(0,142,250)"/><rect x="136" y="256" width="12" height="12" transform="rotate(0,142,262)"/><rect x="136" y="292" width="12" height="12" transform="rotate(0,142,298)"/><rect x="136" y="304" width="12" height="12" transform="rotate(0,142,310)"/><rect x="136" y="316" width="12" height="12" transform="rotate(0,142,322)"/><rect x="136" y="328" width="12" height="12" transform="rotate(0,142,334)"/><rect x="136" y="340" width="12" height="12" transform="rotate(0,142,346)"/><rect x="136" y="352" width="12" height="12" transform="rotate(0,142,358)"/><rect x="136" y="364" width="12" height="12" transform="rotate(0,142,370)"/><rect x="136" y="400" width="12" height="12" transform="rotate(0,142,406)"/><rect x="136" y="412" width="12" height="12" transform="rotate(0,142,418)"/><rect x="148" y="28" width="12" height="12" transform="rotate(0,154,34)"/><rect x="148" y="52" width="12" height="12" transform="rotate(0,154,58)"/><rect x="148" y="88" width="12" height="12" transform="rotate(0,154,94)"/><rect x="148" y="100" width="12" height="12" transform="rotate(0,154,106)"/><rect x="148" y="124" width="12" height="12" transform="rotate(0,154,130)"/><rect x="148" y="148" width="12" height="12" transform="rotate(0,154,154)"/><rect x="148" y="184" width="12" height="12" transform="rotate(0,154,190)"/><rect x="148" y="208" width="12" height="12" transform="rotate(0,154,214)"/><rect x="148" y="220" width="12" height="12" transform="rotate(0,154,226)"/><rect x="148" y="244" width="12" height="12" transform="rotate(0,154,250)"/><rect x="148" y="256" width="12" height="12" transform="rotate(0,154,262)"/><rect x="148" y="280" width="12" height="12" transform="rotate(0,154,286)"/><rect x="148" y="292" width="12" height="12" transform="rotate(0,154,298)"/><rect x="148" y="316" width="12" height="12" transform="rotate(0,154,322)"/><rect x="148" y="328" width="12" height="12" transform="rotate(0,154,334)"/><rect x="148" y="340" width="12" height="12" transform="rotate(0,154,346)"/><rect x="148" y="352" width="12" height="12" transform="rotate(0,154,358)"/><rect x="148" y="388" width="12" height="12" transform="rotate(0,154,394)"/><rect x="148" y="400" width="12" height="12" transform="rotate(0,154,406)"/><rect x="148" y="424" width="12" height="12" transform="rotate(0,154,430)"/><rect x="148" y="448" width="12" height="12" transform="rotate(0,154,454)"/><rect x="148" y="460" width="12" height="12" transform="rotate(0,154,466)"/><rect x="160" y="40" width="12" height="12" transform="rotate(0,166,46)"/><rect x="160" y="52" width="12" height="12" transform="rotate(0,166,58)"/><rect x="160" y="64" width="12" height="12" transform="rotate(0,166,70)"/><rect x="160" y="88" width="12" height="12" transform="rotate(0,166,94)"/><rect x="160" y="112" width="12" height="12" transform="rotate(0,166,118)"/><rect x="160" y="160" width="12" height="12" transform="rotate(0,166,166)"/><rect x="160" y="172" width="12" height="12" transform="rotate(0,166,178)"/><rect x="160" y="208" width="12" height="12" transform="rotate(0,166,214)"/><rect x="160" y="220" width="12" height="12" transform="rotate(0,166,226)"/><rect x="160" y="232" width="12" height="12" transform="rotate(0,166,238)"/><rect x="160" y="304" width="12" height="12" transform="rotate(0,166,310)"/><rect x="160" y="340" width="12" height="12" transform="rotate(0,166,346)"/><rect x="160" y="352" width="12" height="12" transform="rotate(0,166,358)"/><rect x="160" y="388" width="12" height="12" transform="rotate(0,166,394)"/><rect x="160" y="400" width="12" height="12" transform="rotate(0,166,406)"/><rect x="160" y="424" width="12" height="12" transform="rotate(0,166,430)"/><rect x="160" y="460" width="12" height="12" transform="rotate(0,166,466)"/><rect x="172" y="28" width="12" height="12" transform="rotate(0,178,34)"/><rect x="172" y="40" width="12" height="12" transform="rotate(0,178,46)"/><rect x="172" y="88" width="12" height="12" transform="rotate(0,178,94)"/><rect x="172" y="100" width="12" height="12" transform="rotate(0,178,106)"/><rect x="172" y="220" width="12" height="12" transform="rotate(0,178,226)"/><rect x="172" y="232" width="12" height="12" transform="rotate(0,178,238)"/><rect x="172" y="244" width="12" height="12" transform="rotate(0,178,250)"/><rect x="172" y="256" width="12" height="12" transform="rotate(0,178,262)"/><rect x="172" y="268" width="12" height="12" transform="rotate(0,178,274)"/><rect x="172" y="280" width="12" height="12" transform="rotate(0,178,286)"/><rect x="172" y="316" width="12" height="12" transform="rotate(0,178,322)"/><rect x="172" y="352" width="12" height="12" transform="rotate(0,178,358)"/><rect x="172" y="364" width="12" height="12" transform="rotate(0,178,370)"/><rect x="172" y="388" width="12" height="12" transform="rotate(0,178,394)"/><rect x="172" y="400" width="12" height="12" transform="rotate(0,178,406)"/><rect x="172" y="424" width="12" height="12" transform="rotate(0,178,430)"/><rect x="172" y="460" width="12" height="12" transform="rotate(0,178,466)"/><rect x="184" y="28" width="12" height="12" transform="rotate(0,190,34)"/><rect x="184" y="40" width="12" height="12" transform="rotate(0,190,46)"/><rect x="184" y="52" width="12" height="12" transform="rotate(0,190,58)"/><rect x="184" y="76" width="12" height="12" transform="rotate(0,190,82)"/><rect x="184" y="88" width="12" height="12" transform="rotate(0,190,94)"/><rect x="184" y="148" width="12" height="12" transform="rotate(0,190,154)"/><rect x="184" y="160" width="12" height="12" transform="rotate(0,190,166)"/><rect x="184" y="184" width="12" height="12" transform="rotate(0,190,190)"/><rect x="184" y="196" width="12" height="12" transform="rotate(0,190,202)"/><rect x="184" y="232" width="12" height="12" transform="rotate(0,190,238)"/><rect x="184" y="280" width="12" height="12" transform="rotate(0,190,286)"/><rect x="184" y="292" width="12" height="12" transform="rotate(0,190,298)"/><rect x="184" y="304" width="12" height="12" transform="rotate(0,190,310)"/><rect x="184" y="352" width="12" height="12" transform="rotate(0,190,358)"/><rect x="184" y="376" width="12" height="12" transform="rotate(0,190,382)"/><rect x="184" y="436" width="12" height="12" transform="rotate(0,190,442)"/><rect x="196" y="28" width="12" height="12" transform="rotate(0,202,34)"/><rect x="196" y="40" width="12" height="12" transform="rotate(0,202,46)"/><rect x="196" y="52" width="12" height="12" transform="rotate(0,202,58)"/><rect x="196" y="88" width="12" height="12" transform="rotate(0,202,94)"/><rect x="196" y="100" width="12" height="12" transform="rotate(0,202,106)"/><rect x="196" y="112" width="12" height="12" transform="rotate(0,202,118)"/><rect x="196" y="124" width="12" height="12" transform="rotate(0,202,130)"/><rect x="196" y="148" width="12" height="12" transform="rotate(0,202,154)"/><rect x="196" y="172" width="12" height="12" transform="rotate(0,202,178)"/><rect x="196" y="184" width="12" height="12" transform="rotate(0,202,190)"/><rect x="196" y="196" width="12" height="12" transform="rotate(0,202,202)"/><rect x="196" y="232" width="12" height="12" transform="rotate(0,202,238)"/><rect x="196" y="256" width="12" height="12" transform="rotate(0,202,262)"/><rect x="196" y="292" width="12" height="12" transform="rotate(0,202,298)"/><rect x="196" y="316" width="12" height="12" transform="rotate(0,202,322)"/><rect x="196" y="328" width="12" height="12" transform="rotate(0,202,334)"/><rect x="196" y="352" width="12" height="12" transform="rotate(0,202,358)"/><rect x="196" y="364" width="12" height="12" transform="rotate(0,202,370)"/><rect x="196" y="376" width="12" height="12" transform="rotate(0,202,382)"/><rect x="196" y="388" width="12" height="12" transform="rotate(0,202,394)"/><rect x="196" y="412" width="12" height="12" transform="rotate(0,202,418)"/><rect x="196" y="424" width="12" height="12" transform="rotate(0,202,430)"/><rect x="196" y="448" width="12" height="12" transform="rotate(0,202,454)"/><rect x="196" y="460" width="12" height="12" transform="rotate(0,202,466)"/><rect x="208" y="28" width="12" height="12" transform="rotate(0,214,34)"/><rect x="208" y="52" width="12" height="12" transform="rotate(0,214,58)"/><rect x="208" y="136" width="12" height="12" transform="rotate(0,214,142)"/><rect x="208" y="184" width="12" height="12" transform="rotate(0,214,190)"/><rect x="208" y="196" width="12" height="12" transform="rotate(0,214,202)"/><rect x="208" y="244" width="12" height="12" transform="rotate(0,214,250)"/><rect x="208" y="280" width="12" height="12" transform="rotate(0,214,286)"/><rect x="208" y="292" width="12" height="12" transform="rotate(0,214,298)"/><rect x="208" y="352" width="12" height="12" transform="rotate(0,214,358)"/><rect x="208" y="388" width="12" height="12" transform="rotate(0,214,394)"/><rect x="208" y="412" width="12" height="12" transform="rotate(0,214,418)"/><rect x="208" y="424" width="12" height="12" transform="rotate(0,214,430)"/><rect x="208" y="436" width="12" height="12" transform="rotate(0,214,442)"/><rect x="208" y="448" width="12" height="12" transform="rotate(0,214,454)"/><rect x="208" y="460" width="12" height="12" transform="rotate(0,214,466)"/><rect x="220" y="28" width="12" height="12" transform="rotate(0,226,34)"/><rect x="220" y="40" width="12" height="12" transform="rotate(0,226,46)"/><rect x="220" y="52" width="12" height="12" transform="rotate(0,226,58)"/><rect x="220" y="76" width="12" height="12" transform="rotate(0,226,82)"/><rect x="220" y="88" width="12" height="12" transform="rotate(0,226,94)"/><rect x="220" y="100" width="12" height="12" transform="rotate(0,226,106)"/><rect x="220" y="112" width="12" height="12" transform="rotate(0,226,118)"/><rect x="220" y="196" width="12" height="12" transform="rotate(0,226,202)"/><rect x="220" y="268" width="12" height="12" transform="rotate(0,226,274)"/><rect x="220" y="280" width="12" height="12" transform="rotate(0,226,286)"/><rect x="220" y="292" width="12" height="12" transform="rotate(0,226,298)"/><rect x="220" y="316" width="12" height="12" transform="rotate(0,226,322)"/><rect x="220" y="328" width="12" height="12" transform="rotate(0,226,334)"/><rect x="220" y="340" width="12" height="12" transform="rotate(0,226,346)"/><rect x="220" y="376" width="12" height="12" transform="rotate(0,226,382)"/><rect x="220" y="388" width="12" height="12" transform="rotate(0,226,394)"/><rect x="220" y="412" width="12" height="12" transform="rotate(0,226,418)"/><rect x="220" y="436" width="12" height="12" transform="rotate(0,226,442)"/><rect x="220" y="448" width="12" height="12" transform="rotate(0,226,454)"/><rect x="232" y="28" width="12" height="12" transform="rotate(0,238,34)"/><rect x="232" y="64" width="12" height="12" transform="rotate(0,238,70)"/><rect x="232" y="88" width="12" height="12" transform="rotate(0,238,94)"/><rect x="232" y="148" width="12" height="12" transform="rotate(0,238,154)"/><rect x="232" y="196" width="12" height="12" transform="rotate(0,238,202)"/><rect x="232" y="244" width="12" height="12" transform="rotate(0,238,250)"/><rect x="232" y="256" width="12" height="12" transform="rotate(0,238,262)"/><rect x="232" y="268" width="12" height="12" transform="rotate(0,238,274)"/><rect x="232" y="328" width="12" height="12" transform="rotate(0,238,334)"/><rect x="232" y="352" width="12" height="12" transform="rotate(0,238,358)"/><rect x="232" y="364" width="12" height="12" transform="rotate(0,238,370)"/><rect x="232" y="400" width="12" height="12" transform="rotate(0,238,406)"/><rect x="232" y="424" width="12" height="12" transform="rotate(0,238,430)"/><rect x="244" y="28" width="12" height="12" transform="rotate(0,250,34)"/><rect x="244" y="100" width="12" height="12" transform="rotate(0,250,106)"/><rect x="244" y="112" width="12" height="12" transform="rotate(0,250,118)"/><rect x="244" y="136" width="12" height="12" transform="rotate(0,250,142)"/><rect x="244" y="148" width="12" height="12" transform="rotate(0,250,154)"/><rect x="244" y="196" width="12" height="12" transform="rotate(0,250,202)"/><rect x="244" y="232" width="12" height="12" transform="rotate(0,250,238)"/><rect x="244" y="256" width="12" height="12" transform="rotate(0,250,262)"/><rect x="244" y="292" width="12" height="12" transform="rotate(0,250,298)"/><rect x="244" y="316" width="12" height="12" transform="rotate(0,250,322)"/><rect x="244" y="328" width="12" height="12" transform="rotate(0,250,334)"/><rect x="244" y="352" width="12" height="12" transform="rotate(0,250,358)"/><rect x="244" y="364" width="12" height="12" transform="rotate(0,250,370)"/><rect x="244" y="400" width="12" height="12" transform="rotate(0,250,406)"/><rect x="244" y="412" width="12" height="12" transform="rotate(0,250,418)"/><rect x="244" y="436" width="12" height="12" transform="rotate(0,250,442)"/><rect x="244" y="460" width="12" height="12" transform="rotate(0,250,466)"/><rect x="256" y="28" width="12" height="12" transform="rotate(0,262,34)"/><rect x="256" y="64" width="12" height="12" transform="rotate(0,262,70)"/><rect x="256" y="76" width="12" height="12" transform="rotate(0,262,82)"/><rect x="256" y="112" width="12" height="12" transform="rotate(0,262,118)"/><rect x="256" y="136" width="12" height="12" transform="rotate(0,262,142)"/><rect x="256" y="148" width="12" height="12" transform="rotate(0,262,154)"/><rect x="256" y="160" width="12" height="12" transform="rotate(0,262,166)"/><rect x="256" y="172" width="12" height="12" transform="rotate(0,262,178)"/><rect x="256" y="184" width="12" height="12" transform="rotate(0,262,190)"/><rect x="256" y="208" width="12" height="12" transform="rotate(0,262,214)"/><rect x="256" y="292" width="12" height="12" transform="rotate(0,262,298)"/><rect x="256" y="304" width="12" height="12" transform="rotate(0,262,310)"/><rect x="256" y="340" width="12" height="12" transform="rotate(0,262,346)"/><rect x="256" y="352" width="12" height="12" transform="rotate(0,262,358)"/><rect x="256" y="364" width="12" height="12" transform="rotate(0,262,370)"/><rect x="256" y="400" width="12" height="12" transform="rotate(0,262,406)"/><rect x="256" y="424" width="12" height="12" transform="rotate(0,262,430)"/><rect x="256" y="448" width="12" height="12" transform="rotate(0,262,454)"/><rect x="256" y="460" width="12" height="12" transform="rotate(0,262,466)"/><rect x="268" y="28" width="12" height="12" transform="rotate(0,274,34)"/><rect x="268" y="40" width="12" height="12" transform="rotate(0,274,46)"/><rect x="268" y="52" width="12" height="12" transform="rotate(0,274,58)"/><rect x="268" y="64" width="12" height="12" transform="rotate(0,274,70)"/><rect x="268" y="88" width="12" height="12" transform="rotate(0,274,94)"/><rect x="268" y="100" width="12" height="12" transform="rotate(0,274,106)"/><rect x="268" y="112" width="12" height="12" transform="rotate(0,274,118)"/><rect x="268" y="124" width="12" height="12" transform="rotate(0,274,130)"/><rect x="268" y="136" width="12" height="12" transform="rotate(0,274,142)"/><rect x="268" y="172" width="12" height="12" transform="rotate(0,274,178)"/><rect x="268" y="196" width="12" height="12" transform="rotate(0,274,202)"/><rect x="268" y="208" width="12" height="12" transform="rotate(0,274,214)"/><rect x="268" y="220" width="12" height="12" transform="rotate(0,274,226)"/><rect x="268" y="256" width="12" height="12" transform="rotate(0,274,262)"/><rect x="268" y="268" width="12" height="12" transform="rotate(0,274,274)"/><rect x="268" y="292" width="12" height="12" transform="rotate(0,274,298)"/><rect x="268" y="304" width="12" height="12" transform="rotate(0,274,310)"/><rect x="268" y="316" width="12" height="12" transform="rotate(0,274,322)"/><rect x="268" y="328" width="12" height="12" transform="rotate(0,274,334)"/><rect x="268" y="340" width="12" height="12" transform="rotate(0,274,346)"/><rect x="268" y="352" width="12" height="12" transform="rotate(0,274,358)"/><rect x="268" y="376" width="12" height="12" transform="rotate(0,274,382)"/><rect x="268" y="388" width="12" height="12" transform="rotate(0,274,394)"/><rect x="268" y="400" width="12" height="12" transform="rotate(0,274,406)"/><rect x="268" y="412" width="12" height="12" transform="rotate(0,274,418)"/><rect x="268" y="424" width="12" height="12" transform="rotate(0,274,430)"/><rect x="268" y="436" width="12" height="12" transform="rotate(0,274,442)"/><rect x="268" y="448" width="12" height="12" transform="rotate(0,274,454)"/><rect x="268" y="460" width="12" height="12" transform="rotate(0,274,466)"/><rect x="280" y="28" width="12" height="12" transform="rotate(0,286,34)"/><rect x="280" y="64" width="12" height="12" transform="rotate(0,286,70)"/><rect x="280" y="76" width="12" height="12" transform="rotate(0,286,82)"/><rect x="280" y="124" width="12" height="12" transform="rotate(0,286,130)"/><rect x="280" y="136" width="12" height="12" transform="rotate(0,286,142)"/><rect x="280" y="148" width="12" height="12" transform="rotate(0,286,154)"/><rect x="280" y="160" width="12" height="12" transform="rotate(0,286,166)"/><rect x="280" y="184" width="12" height="12" transform="rotate(0,286,190)"/><rect x="280" y="220" width="12" height="12" transform="rotate(0,286,226)"/><rect x="280" y="268" width="12" height="12" transform="rotate(0,286,274)"/><rect x="280" y="292" width="12" height="12" transform="rotate(0,286,298)"/><rect x="280" y="304" width="12" height="12" transform="rotate(0,286,310)"/><rect x="280" y="328" width="12" height="12" transform="rotate(0,286,334)"/><rect x="280" y="340" width="12" height="12" transform="rotate(0,286,346)"/><rect x="280" y="352" width="12" height="12" transform="rotate(0,286,358)"/><rect x="280" y="364" width="12" height="12" transform="rotate(0,286,370)"/><rect x="280" y="400" width="12" height="12" transform="rotate(0,286,406)"/><rect x="280" y="412" width="12" height="12" transform="rotate(0,286,418)"/><rect x="292" y="40" width="12" height="12" transform="rotate(0,298,46)"/><rect x="292" y="64" width="12" height="12" transform="rotate(0,298,70)"/><rect x="292" y="76" width="12" height="12" transform="rotate(0,298,82)"/><rect x="292" y="88" width="12" height="12" transform="rotate(0,298,94)"/><rect x="292" y="100" width="12" height="12" transform="rotate(0,298,106)"/><rect x="292" y="124" width="12" height="12" transform="rotate(0,298,130)"/><rect x="292" y="136" width="12" height="12" transform="rotate(0,298,142)"/><rect x="292" y="184" width="12" height="12" transform="rotate(0,298,190)"/><rect x="292" y="232" width="12" height="12" transform="rotate(0,298,238)"/><rect x="292" y="268" width="12" height="12" transform="rotate(0,298,274)"/><rect x="292" y="292" width="12" height="12" transform="rotate(0,298,298)"/><rect x="292" y="328" width="12" height="12" transform="rotate(0,298,334)"/><rect x="292" y="340" width="12" height="12" transform="rotate(0,298,346)"/><rect x="292" y="352" width="12" height="12" transform="rotate(0,298,358)"/><rect x="292" y="376" width="12" height="12" transform="rotate(0,298,382)"/><rect x="292" y="424" width="12" height="12" transform="rotate(0,298,430)"/><rect x="292" y="448" width="12" height="12" transform="rotate(0,298,454)"/><rect x="292" y="460" width="12" height="12" transform="rotate(0,298,466)"/><rect x="304" y="28" width="12" height="12" transform="rotate(0,310,34)"/><rect x="304" y="88" width="12" height="12" transform="rotate(0,310,94)"/><rect x="304" y="112" width="12" height="12" transform="rotate(0,310,118)"/><rect x="304" y="136" width="12" height="12" transform="rotate(0,310,142)"/><rect x="304" y="148" width="12" height="12" transform="rotate(0,310,154)"/><rect x="304" y="172" width="12" height="12" transform="rotate(0,310,178)"/><rect x="304" y="184" width="12" height="12" transform="rotate(0,310,190)"/><rect x="304" y="196" width="12" height="12" transform="rotate(0,310,202)"/><rect x="304" y="208" width="12" height="12" transform="rotate(0,310,214)"/><rect x="304" y="232" width="12" height="12" transform="rotate(0,310,238)"/><rect x="304" y="244" width="12" height="12" transform="rotate(0,310,250)"/><rect x="304" y="256" width="12" height="12" transform="rotate(0,310,262)"/><rect x="304" y="292" width="12" height="12" transform="rotate(0,310,298)"/><rect x="304" y="304" width="12" height="12" transform="rotate(0,310,310)"/><rect x="304" y="316" width="12" height="12" transform="rotate(0,310,322)"/><rect x="304" y="328" width="12" height="12" transform="rotate(0,310,334)"/><rect x="304" y="352" width="12" height="12" transform="rotate(0,310,358)"/><rect x="304" y="388" width="12" height="12" transform="rotate(0,310,394)"/><rect x="304" y="400" width="12" height="12" transform="rotate(0,310,406)"/><rect x="304" y="424" width="12" height="12" transform="rotate(0,310,430)"/><rect x="304" y="448" width="12" height="12" transform="rotate(0,310,454)"/><rect x="316" y="64" width="12" height="12" transform="rotate(0,322,70)"/><rect x="316" y="76" width="12" height="12" transform="rotate(0,322,82)"/><rect x="316" y="100" width="12" height="12" transform="rotate(0,322,106)"/><rect x="316" y="124" width="12" height="12" transform="rotate(0,322,130)"/><rect x="316" y="136" width="12" height="12" transform="rotate(0,322,142)"/><rect x="316" y="148" width="12" height="12" transform="rotate(0,322,154)"/><rect x="316" y="160" width="12" height="12" transform="rotate(0,322,166)"/><rect x="316" y="172" width="12" height="12" transform="rotate(0,322,178)"/><rect x="316" y="196" width="12" height="12" transform="rotate(0,322,202)"/><rect x="316" y="208" width="12" height="12" transform="rotate(0,322,214)"/><rect x="316" y="232" width="12" height="12" transform="rotate(0,322,238)"/><rect x="316" y="256" width="12" height="12" transform="rotate(0,322,262)"/><rect x="316" y="304" width="12" height="12" transform="rotate(0,322,310)"/><rect x="316" y="316" width="12" height="12" transform="rotate(0,322,322)"/><rect x="316" y="328" width="12" height="12" transform="rotate(0,322,334)"/><rect x="316" y="388" width="12" height="12" transform="rotate(0,322,394)"/><rect x="316" y="448" width="12" height="12" transform="rotate(0,322,454)"/><rect x="316" y="460" width="12" height="12" transform="rotate(0,322,466)"/><rect x="328" y="28" width="12" height="12" transform="rotate(0,334,34)"/><rect x="328" y="40" width="12" height="12" transform="rotate(0,334,46)"/><rect x="328" y="64" width="12" height="12" transform="rotate(0,334,70)"/><rect x="328" y="112" width="12" height="12" transform="rotate(0,334,118)"/><rect x="328" y="124" width="12" height="12" transform="rotate(0,334,130)"/><rect x="328" y="160" width="12" height="12" transform="rotate(0,334,166)"/><rect x="328" y="196" width="12" height="12" transform="rotate(0,334,202)"/><rect x="328" y="232" width="12" height="12" transform="rotate(0,334,238)"/><rect x="328" y="280" width="12" height="12" transform="rotate(0,334,286)"/><rect x="328" y="304" width="12" height="12" transform="rotate(0,334,310)"/><rect x="328" y="352" width="12" height="12" transform="rotate(0,334,358)"/><rect x="328" y="364" width="12" height="12" transform="rotate(0,334,370)"/><rect x="328" y="400" width="12" height="12" transform="rotate(0,334,406)"/><rect x="328" y="424" width="12" height="12" transform="rotate(0,334,430)"/><rect x="328" y="448" width="12" height="12" transform="rotate(0,334,454)"/><rect x="340" y="28" width="12" height="12" transform="rotate(0,346,34)"/><rect x="340" y="100" width="12" height="12" transform="rotate(0,346,106)"/><rect x="340" y="112" width="12" height="12" transform="rotate(0,346,118)"/><rect x="340" y="136" width="12" height="12" transform="rotate(0,346,142)"/><rect x="340" y="160" width="12" height="12" transform="rotate(0,346,166)"/><rect x="340" y="232" width="12" height="12" transform="rotate(0,346,238)"/><rect x="340" y="244" width="12" height="12" transform="rotate(0,346,250)"/><rect x="340" y="292" width="12" height="12" transform="rotate(0,346,298)"/><rect x="340" y="352" width="12" height="12" transform="rotate(0,346,358)"/><rect x="340" y="364" width="12" height="12" transform="rotate(0,346,370)"/><rect x="340" y="388" width="12" height="12" transform="rotate(0,346,394)"/><rect x="340" y="448" width="12" height="12" transform="rotate(0,346,454)"/><rect x="340" y="460" width="12" height="12" transform="rotate(0,346,466)"/><rect x="352" y="28" width="12" height="12" transform="rotate(0,358,34)"/><rect x="352" y="88" width="12" height="12" transform="rotate(0,358,94)"/><rect x="352" y="124" width="12" height="12" transform="rotate(0,358,130)"/><rect x="352" y="136" width="12" height="12" transform="rotate(0,358,142)"/><rect x="352" y="184" width="12" height="12" transform="rotate(0,358,190)"/><rect x="352" y="196" width="12" height="12" transform="rotate(0,358,202)"/><rect x="352" y="220" width="12" height="12" transform="rotate(0,358,226)"/><rect x="352" y="232" width="12" height="12" transform="rotate(0,358,238)"/><rect x="352" y="268" width="12" height="12" transform="rotate(0,358,274)"/><rect x="352" y="304" width="12" height="12" transform="rotate(0,358,310)"/><rect x="352" y="376" width="12" height="12" transform="rotate(0,358,382)"/><rect x="352" y="400" width="12" height="12" transform="rotate(0,358,406)"/><rect x="352" y="412" width="12" height="12" transform="rotate(0,358,418)"/><rect x="352" y="424" width="12" height="12" transform="rotate(0,358,430)"/><rect x="352" y="436" width="12" height="12" transform="rotate(0,358,442)"/><rect x="352" y="448" width="12" height="12" transform="rotate(0,358,454)"/><rect x="352" y="460" width="12" height="12" transform="rotate(0,358,466)"/><rect x="364" y="28" width="12" height="12" transform="rotate(0,370,34)"/><rect x="364" y="52" width="12" height="12" transform="rotate(0,370,58)"/><rect x="364" y="76" width="12" height="12" transform="rotate(0,370,82)"/><rect x="364" y="88" width="12" height="12" transform="rotate(0,370,94)"/><rect x="364" y="100" width="12" height="12" transform="rotate(0,370,106)"/><rect x="364" y="124" width="12" height="12" transform="rotate(0,370,130)"/><rect x="364" y="148" width="12" height="12" transform="rotate(0,370,154)"/><rect x="364" y="160" width="12" height="12" transform="rotate(0,370,166)"/><rect x="364" y="172" width="12" height="12" transform="rotate(0,370,178)"/><rect x="364" y="196" width="12" height="12" transform="rotate(0,370,202)"/><rect x="364" y="208" width="12" height="12" transform="rotate(0,370,214)"/><rect x="364" y="220" width="12" height="12" transform="rotate(0,370,226)"/><rect x="364" y="232" width="12" height="12" transform="rotate(0,370,238)"/><rect x="364" y="256" width="12" height="12" transform="rotate(0,370,262)"/><rect x="364" y="292" width="12" height="12" transform="rotate(0,370,298)"/><rect x="364" y="304" width="12" height="12" transform="rotate(0,370,310)"/><rect x="364" y="328" width="12" height="12" transform="rotate(0,370,334)"/><rect x="364" y="340" width="12" height="12" transform="rotate(0,370,346)"/><rect x="364" y="352" width="12" height="12" transform="rotate(0,370,358)"/><rect x="364" y="364" width="12" height="12" transform="rotate(0,370,370)"/><rect x="364" y="376" width="12" height="12" transform="rotate(0,370,382)"/><rect x="364" y="388" width="12" height="12" transform="rotate(0,370,394)"/><rect x="364" y="400" width="12" height="12" transform="rotate(0,370,406)"/><rect x="364" y="412" width="12" height="12" transform="rotate(0,370,418)"/><rect x="364" y="424" width="12" height="12" transform="rotate(0,370,430)"/><rect x="364" y="436" width="12" height="12" transform="rotate(0,370,442)"/><rect x="376" y="124" width="12" height="12" transform="rotate(0,382,130)"/><rect x="376" y="160" width="12" height="12" transform="rotate(0,382,166)"/><rect x="376" y="184" width="12" height="12" transform="rotate(0,382,190)"/><rect x="376" y="208" width="12" height="12" transform="rotate(0,382,214)"/><rect x="376" y="220" width="12" height="12" transform="rotate(0,382,226)"/><rect x="376" y="292" width="12" height="12" transform="rotate(0,382,298)"/><rect x="376" y="304" width="12" height="12" transform="rotate(0,382,310)"/><rect x="376" y="328" width="12" height="12" transform="rotate(0,382,334)"/><rect x="376" y="340" width="12" height="12" transform="rotate(0,382,346)"/><rect x="376" y="364" width="12" height="12" transform="rotate(0,382,370)"/><rect x="376" y="412" width="12" height="12" transform="rotate(0,382,418)"/><rect x="376" y="424" width="12" height="12" transform="rotate(0,382,430)"/><rect x="388" y="124" width="12" height="12" transform="rotate(0,394,130)"/><rect x="388" y="184" width="12" height="12" transform="rotate(0,394,190)"/><rect x="388" y="208" width="12" height="12" transform="rotate(0,394,214)"/><rect x="388" y="232" width="12" height="12" transform="rotate(0,394,238)"/><rect x="388" y="256" width="12" height="12" transform="rotate(0,394,262)"/><rect x="388" y="268" width="12" height="12" transform="rotate(0,394,274)"/><rect x="388" y="280" width="12" height="12" transform="rotate(0,394,286)"/><rect x="388" y="292" width="12" height="12" transform="rotate(0,394,298)"/><rect x="388" y="304" width="12" height="12" transform="rotate(0,394,310)"/><rect x="388" y="316" width="12" height="12" transform="rotate(0,394,322)"/><rect x="388" y="328" width="12" height="12" transform="rotate(0,394,334)"/><rect x="388" y="340" width="12" height="12" transform="rotate(0,394,346)"/><rect x="388" y="364" width="12" height="12" transform="rotate(0,394,370)"/><rect x="388" y="388" width="12" height="12" transform="rotate(0,394,394)"/><rect x="388" y="412" width="12" height="12" transform="rotate(0,394,418)"/><rect x="388" y="424" width="12" height="12" transform="rotate(0,394,430)"/><rect x="388" y="436" width="12" height="12" transform="rotate(0,394,442)"/><rect x="388" y="460" width="12" height="12" transform="rotate(0,394,466)"/><rect x="400" y="148" width="12" height="12" transform="rotate(0,406,154)"/><rect x="400" y="184" width="12" height="12" transform="rotate(0,406,190)"/><rect x="400" y="208" width="12" height="12" transform="rotate(0,406,214)"/><rect x="400" y="232" width="12" height="12" transform="rotate(0,406,238)"/><rect x="400" y="244" width="12" height="12" transform="rotate(0,406,250)"/><rect x="400" y="256" width="12" height="12" transform="rotate(0,406,262)"/><rect x="400" y="292" width="12" height="12" transform="rotate(0,406,298)"/><rect x="400" y="340" width="12" height="12" transform="rotate(0,406,346)"/><rect x="400" y="352" width="12" height="12" transform="rotate(0,406,358)"/><rect x="400" y="364" width="12" height="12" transform="rotate(0,406,370)"/><rect x="400" y="412" width="12" height="12" transform="rotate(0,406,418)"/><rect x="400" y="424" width="12" height="12" transform="rotate(0,406,430)"/><rect x="400" y="460" width="12" height="12" transform="rotate(0,406,466)"/><rect x="412" y="172" width="12" height="12" transform="rotate(0,418,178)"/><rect x="412" y="184" width="12" height="12" transform="rotate(0,418,190)"/><rect x="412" y="196" width="12" height="12" transform="rotate(0,418,202)"/><rect x="412" y="244" width="12" height="12" transform="rotate(0,418,250)"/><rect x="412" y="280" width="12" height="12" transform="rotate(0,418,286)"/><rect x="412" y="328" width="12" height="12" transform="rotate(0,418,334)"/><rect x="412" y="340" width="12" height="12" transform="rotate(0,418,346)"/><rect x="412" y="352" width="12" height="12" transform="rotate(0,418,358)"/><rect x="412" y="364" width="12" height="12" transform="rotate(0,418,370)"/><rect x="412" y="376" width="12" height="12" transform="rotate(0,418,382)"/><rect x="412" y="388" width="12" height="12" transform="rotate(0,418,394)"/><rect x="412" y="400" width="12" height="12" transform="rotate(0,418,406)"/><rect x="412" y="412" width="12" height="12" transform="rotate(0,418,418)"/><rect x="412" y="436" width="12" height="12" transform="rotate(0,418,442)"/><rect x="424" y="136" width="12" height="12" transform="rotate(0,430,142)"/><rect x="424" y="172" width="12" height="12" transform="rotate(0,430,178)"/><rect x="424" y="232" width="12" height="12" transform="rotate(0,430,238)"/><rect x="424" y="316" width="12" height="12" transform="rotate(0,430,322)"/><rect x="424" y="340" width="12" height="12" transform="rotate(0,430,346)"/><rect x="424" y="352" width="12" height="12" transform="rotate(0,430,358)"/><rect x="424" y="364" width="12" height="12" transform="rotate(0,430,370)"/><rect x="424" y="388" width="12" height="12" transform="rotate(0,430,394)"/><rect x="424" y="424" width="12" height="12" transform="rotate(0,430,430)"/><rect x="424" y="448" width="12" height="12" transform="rotate(0,430,454)"/><rect x="436" y="160" width="12" height="12" transform="rotate(0,442,166)"/><rect x="436" y="196" width="12" height="12" transform="rotate(0,442,202)"/><rect x="436" y="208" width="12" height="12" transform="rotate(0,442,214)"/><rect x="436" y="232" width="12" height="12" transform="rotate(0,442,238)"/><rect x="436" y="244" width="12" height="12" transform="rotate(0,442,250)"/><rect x="436" y="256" width="12" height="12" transform="rotate(0,442,262)"/><rect x="436" y="340" width="12" height="12" transform="rotate(0,442,346)"/><rect x="436" y="352" width="12" height="12" transform="rotate(0,442,358)"/><rect x="436" y="364" width="12" height="12" transform="rotate(0,442,370)"/><rect x="436" y="376" width="12" height="12" transform="rotate(0,442,382)"/><rect x="436" y="400" width="12" height="12" transform="rotate(0,442,406)"/><rect x="436" y="424" width="12" height="12" transform="rotate(0,442,430)"/><rect x="436" y="436" width="12" height="12" transform="rotate(0,442,442)"/><rect x="436" y="460" width="12" height="12" transform="rotate(0,442,466)"/><rect x="448" y="124" width="12" height="12" transform="rotate(0,454,130)"/><rect x="448" y="172" width="12" height="12" transform="rotate(0,454,178)"/><rect x="448" y="184" width="12" height="12" transform="rotate(0,454,190)"/><rect x="448" y="208" width="12" height="12" transform="rotate(0,454,214)"/><rect x="448" y="232" width="12" height="12" transform="rotate(0,454,238)"/><rect x="448" y="244" width="12" height="12" transform="rotate(0,454,250)"/><rect x="448" y="256" width="12" height="12" transform="rotate(0,454,262)"/><rect x="448" y="268" width="12" height="12" transform="rotate(0,454,274)"/><rect x="448" y="292" width="12" height="12" transform="rotate(0,454,298)"/><rect x="448" y="316" width="12" height="12" transform="rotate(0,454,322)"/><rect x="448" y="340" width="12" height="12" transform="rotate(0,454,346)"/><rect x="448" y="352" width="12" height="12" transform="rotate(0,454,358)"/><rect x="448" y="364" width="12" height="12" transform="rotate(0,454,370)"/><rect x="448" y="400" width="12" height="12" transform="rotate(0,454,406)"/><rect x="448" y="424" width="12" height="12" transform="rotate(0,454,430)"/><rect x="448" y="460" width="12" height="12" transform="rotate(0,454,466)"/><rect x="460" y="172" width="12" height="12" transform="rotate(0,466,178)"/><rect x="460" y="184" width="12" height="12" transform="rotate(0,466,190)"/><rect x="460" y="208" width="12" height="12" transform="rotate(0,466,214)"/><rect x="460" y="232" width="12" height="12" transform="rotate(0,466,238)"/><rect x="460" y="244" width="12" height="12" transform="rotate(0,466,250)"/><rect x="460" y="268" width="12" height="12" transform="rotate(0,466,274)"/><rect x="460" y="304" width="12" height="12" transform="rotate(0,466,310)"/><rect x="460" y="316" width="12" height="12" transform="rotate(0,466,322)"/><rect x="460" y="364" width="12" height="12" transform="rotate(0,466,370)"/><rect x="460" y="388" width="12" height="12" transform="rotate(0,466,394)"/><rect x="460" y="412" width="12" height="12" transform="rotate(0,466,418)"/><rect x="460" y="460" width="12" height="12" transform="rotate(0,466,466)"/><path clip-rule="evenodd" d="M 28 28v 84h 84v -84zM 40 40h 60v 60h -60z" transform="rotate(0,70,70)"/><rect x="52" y="52" width="36" height="36" transform="rotate(0,70,70)"/><path clip-rule="evenodd" d="M 388 28v 84h 84v -84zM 400 40h 60v 60h -60z" transform="rotate(90,430,70)"/><rect x="412" y="52" width="36" height="36" transform="rotate(90,430,70)"/><path clip-rule="evenodd" d="M 28 388v 84h 84v -84zM 40 400h 60v 60h -60z" transform="rotate(-90,70,430)"/><rect x="52" y="412" width="36" height="36" transform="rotate(-90,70,430)"/></clipPath></defs><rect x="0" y="0" height="500" width="500" clip-path="url('#clip-path-background-color')" fill="#fff"/><rect x="0" y="0" height="500" width="500" clip-path="url('#clip-path-dot-color')" fill="#000000"/></svg>